<?xml version="1.0" encoding="UTF-8" standalone="no"?>
<!-- Created with Inkscape (http://www.inkscape.org/) -->

<svg
   xmlns:dc="http://purl.org/dc/elements/1.1/"
   xmlns:cc="http://creativecommons.org/ns#"
   xmlns:rdf="http://www.w3.org/1999/02/22-rdf-syntax-ns#"
   xmlns:svg="http://www.w3.org/2000/svg"
   xmlns="http://www.w3.org/2000/svg"
   xmlns:sodipodi="http://sodipodi.sourceforge.net/DTD/sodipodi-0.dtd"
   xmlns:inkscape="http://www.inkscape.org/namespaces/inkscape"
   width="395.42679mm"
   height="193.40132mm"
   viewBox="0 0 395.42679 193.40132"
   version="1.1"
   id="svg892"
   inkscape:version="0.92.4 (5da689c313, 2019-01-14)"
   sodipodi:docname="edaa_banner.svg">
  <defs
     id="defs886" />
  <sodipodi:namedview
     id="base"
     pagecolor="#ffffff"
     bordercolor="#666666"
     borderopacity="1.0"
     inkscape:pageopacity="0.0"
     inkscape:pageshadow="2"
     inkscape:zoom="0.35"
     inkscape:cx="-79.898327"
     inkscape:cy="540.34886"
     inkscape:document-units="mm"
     inkscape:current-layer="text1492"
     showgrid="false"
     fit-margin-top="2"
     fit-margin-left="2"
     fit-margin-right="2"
     fit-margin-bottom="2"
     inkscape:window-width="1920"
     inkscape:window-height="1017"
     inkscape:window-x="-8"
     inkscape:window-y="1072"
     inkscape:window-maximized="1"
     showguides="true"
     inkscape:guide-bbox="true">
    <sodipodi:guide
       position="132.39719,165.34504"
       orientation="0,1"
       id="guide832"
       inkscape:locked="false" />
    <sodipodi:guide
       position="132.39719,54.475857"
       orientation="0,1"
       id="guide834"
       inkscape:locked="false" />
    <sodipodi:guide
       position="1.7763449,7.2916764"
       orientation="1,0"
       id="guide864"
       inkscape:locked="false" />
    <sodipodi:guide
       position="393.09525,9.4494071"
       orientation="1,0"
       id="guide866"
       inkscape:locked="false" />
  </sodipodi:namedview>
  <metadata
     id="metadata889">
    <rdf:RDF>
      <cc:Work
         rdf:about="">
        <dc:format>image/svg+xml</dc:format>
        <dc:type
           rdf:resource="http://purl.org/dc/dcmitype/StillImage" />
        <dc:title />
      </cc:Work>
    </rdf:RDF>
  </metadata>
  <g
     inkscape:label="Layer 1"
     inkscape:groupmode="layer"
     id="layer1"
     transform="translate(92.163289,-56.895201)">
    <g
       transform="matrix(0.44347673,0,0,0.44347673,-90.163289,195.82067)"
       id="g851">
      <rect
         id="rect4"
         height="50"
         width="100"
         y="-50"
         x="100"
         style="fill:#37474f" />
      <rect
         id="rect6"
         height="50"
         width="100"
         y="-50"
         x="200"
         style="fill:#78909c" />
      <rect
         id="rect8"
         height="50"
         width="100"
         y="-100"
         x="100"
         style="fill:#ff8f00" />
      <rect
         id="rect10"
         height="50"
         width="100"
         y="-100"
         x="0"
         style="fill:#ffca28" />
      <rect
         id="rect12"
         height="50"
         width="100"
         y="-150"
         x="100"
         style="fill:#558b2f" />
      <rect
         id="rect14"
         height="50"
         width="100"
         y="-150"
         x="200"
         style="fill:#9ccc65" />
      <rect
         id="rect16"
         height="50"
         width="100"
         y="-200"
         x="100"
         style="fill:#0277bd" />
      <rect
         id="rect18"
         height="50"
         width="100"
         y="-200"
         x="0"
         style="fill:#29b6f6" />
      <rect
         id="rect20"
         height="50"
         width="100"
         y="-250"
         x="100"
         style="fill:#6a1b9a" />
      <rect
         id="rect22"
         height="50"
         width="100"
         y="-250"
         x="200"
         style="fill:#ab47bc" />
      <rect
         id="rect24"
         height="50"
         width="100"
         y="-300"
         x="100"
         style="fill:#c62828" />
      <rect
         id="rect26"
         height="50"
         width="100"
         y="-300"
         x="0"
         style="fill:#ef5350" />
    </g>
    <g
       aria-label="Electronic Design Automation Abstraction"
       style="font-style:normal;font-weight:normal;font-size:10.58333302px;line-height:1.25;font-family:sans-serif;letter-spacing:0px;word-spacing:0px;fill:#000000;fill-opacity:1;stroke:none;stroke-width:0.26458332"
       id="text1492">
      <path
         d="m -86.596167,241.4484 h 5.874456 v 2.36926 h -8.827912 v -20.31718 h 8.600723 v 2.36925 h -5.647267 v 6.26393 h 4.6736 v 2.36925 h -4.6736 z"
         style="font-style:normal;font-variant:normal;font-weight:normal;font-stretch:normal;font-size:32.45555878px;line-height:0.95999998;font-family:Teko;-inkscape-font-specification:Teko;stroke-width:0.26458332"
         id="path846"
         inkscape:connector-curvature="0" />
      <path
         d="m -75.731669,243.81766 h -2.921001 v -21.71277 h 2.921001 z"
         style="font-style:normal;font-variant:normal;font-weight:normal;font-stretch:normal;font-size:32.45555878px;line-height:0.95999998;font-family:Teko;-inkscape-font-specification:Teko;stroke-width:0.26458332"
         id="path848"
         inkscape:connector-curvature="0" />
      <path
         d="m -69.930746,227.97934 h 3.180645 q 3.050822,0 3.050822,2.88855 v 5.93937 h -6.393745 v 3.76484 q 0,0.55175 0.194734,0.74648 0.194733,0.19473 0.778933,0.19473 h 1.492956 q 0.5842,0 0.778933,-0.19473 0.194734,-0.19473 0.194734,-0.77893 v -1.29823 h 2.856089 v 1.72015 q 0,2.85609 -3.018367,2.85609 h -3.115734 q -3.018367,0 -3.018367,-2.85609 v -10.09368 q 0,-2.88855 3.018367,-2.88855 z m -0.162278,6.68585 h 3.505201 v -3.44029 q 0,-0.55174 -0.194734,-0.74648 -0.162277,-0.19473 -0.746478,-0.19473 h -1.590322 q -0.5842,0 -0.778933,0.19473 -0.194734,0.19474 -0.194734,0.74648 z"
         style="font-style:normal;font-variant:normal;font-weight:normal;font-stretch:normal;font-size:32.45555878px;line-height:0.95999998;font-family:Teko;-inkscape-font-specification:Teko;stroke-width:0.26458332"
         id="path850"
         inkscape:connector-curvature="0" />
      <path
         d="m -52.26275,232.9775 h -2.888545 v -1.68769 q 0,-0.5842 -0.194733,-0.74648 -0.194734,-0.19473 -0.778934,-0.19473 h -1.395589 q -0.5842,0 -0.778933,0.19473 -0.194734,0.16228 -0.194734,0.74648 v 9.21738 q 0,0.5842 0.194734,0.77893 0.194733,0.16228 0.778933,0.16228 h 1.395589 q 0.5842,0 0.778934,-0.16228 0.194733,-0.19473 0.194733,-0.77893 v -1.68769 h 2.888545 v 2.14207 q 0,2.85609 -3.050823,2.85609 h -3.083278 q -3.018367,0 -3.018367,-2.85609 v -10.09368 q 0,-2.88855 3.018367,-2.88855 h 3.083278 q 3.050823,0 3.050823,2.88855 z"
         style="font-style:normal;font-variant:normal;font-weight:normal;font-stretch:normal;font-size:32.45555878px;line-height:0.95999998;font-family:Teko;-inkscape-font-specification:Teko;stroke-width:0.26458332"
         id="path852"
         inkscape:connector-curvature="0" />
      <path
         d="m -44.455161,230.3486 h -2.174522 v 10.02877 q 0,0.5842 0.162277,0.77893 0.194734,0.16228 0.778934,0.16228 h 1.233311 v 2.49908 h -2.077156 q -3.050822,0 -3.050822,-2.85609 V 230.3486 h -1.492956 v -2.36926 h 1.492956 v -2.69381 h 2.953456 v 2.69381 h 2.174522 z"
         style="font-style:normal;font-variant:normal;font-weight:normal;font-stretch:normal;font-size:32.45555878px;line-height:0.95999998;font-family:Teko;-inkscape-font-specification:Teko;stroke-width:0.26458332"
         id="path854"
         inkscape:connector-curvature="0" />
      <path
         d="m -37.225684,227.94689 h 0.649112 v 2.53153 h -1.168401 q -2.0447,0 -2.0447,2.40171 v 10.93753 h -2.921 v -15.83832 h 2.921 v 1.94734 q 0.259645,-0.84385 0.908756,-1.39559 0.681567,-0.5842 1.655233,-0.5842 z"
         style="font-style:normal;font-variant:normal;font-weight:normal;font-stretch:normal;font-size:32.45555878px;line-height:0.95999998;font-family:Teko;-inkscape-font-specification:Teko;stroke-width:0.26458332"
         id="path856"
         inkscape:connector-curvature="0" />
      <path
         d="m -32.153488,227.97934 h 3.472744 q 3.018367,0 3.018367,2.88855 v 10.09368 q 0,2.85609 -3.018367,2.85609 h -3.472744 q -2.985912,0 -2.985912,-2.85609 v -10.09368 q 0,-2.88855 2.985912,-2.88855 z m 3.602567,12.56031 v -9.28229 q 0,-0.5842 -0.194734,-0.77894 -0.194733,-0.19473 -0.778933,-0.19473 h -1.785056 q -0.5842,0 -0.778933,0.19473 -0.162278,0.19474 -0.162278,0.77894 v 9.28229 q 0,0.5842 0.162278,0.77893 0.194733,0.19473 0.778933,0.19473 h 1.785056 q 0.5842,0 0.778933,-0.19473 0.194734,-0.19473 0.194734,-0.77893 z"
         style="font-style:normal;font-variant:normal;font-weight:normal;font-stretch:normal;font-size:32.45555878px;line-height:0.95999998;font-family:Teko;-inkscape-font-specification:Teko;stroke-width:0.26458332"
         id="path858"
         inkscape:connector-curvature="0" />
      <path
         d="m -18.06321,227.97934 h 1.135945 q 2.953455,0 2.953455,2.88855 v 12.94977 h -2.921 v -12.52785 q 0,-0.5842 -0.194733,-0.74648 -0.194734,-0.19473 -0.778934,-0.19473 h -1.135944 q -0.5842,0 -0.843845,0.25965 -0.227189,0.25964 -0.227189,0.8763 v 12.33311 h -2.921 v -15.83832 h 2.921 v 1.26577 q 0.421923,-1.26577 2.012245,-1.26577 z"
         style="font-style:normal;font-variant:normal;font-weight:normal;font-stretch:normal;font-size:32.45555878px;line-height:0.95999998;font-family:Teko;-inkscape-font-specification:Teko;stroke-width:0.26458332"
         id="path860"
         inkscape:connector-curvature="0" />
      <path
         d="m -11.207484,224.96098 v -2.88855 h 3.0508223 v 2.88855 z m 2.9859112,18.85668 h -2.9210002 v -15.83832 h 2.9210002 z"
         style="font-style:normal;font-variant:normal;font-weight:normal;font-stretch:normal;font-size:32.45555878px;line-height:0.95999998;font-family:Teko;-inkscape-font-specification:Teko;stroke-width:0.26458332"
         id="path862"
         inkscape:connector-curvature="0" />
      <path
         d="M 3.5836319,232.9775 H 0.69508717 v -1.68769 q 0,-0.5842 -0.19473336,-0.74648 -0.19473335,-0.19473 -0.77893341,-0.19473 h -1.395589 q -0.5842001,0 -0.7789334,0.19473 -0.1947334,0.16228 -0.1947334,0.74648 v 9.21738 q 0,0.5842 0.1947334,0.77893 0.1947333,0.16228 0.7789334,0.16228 h 1.395589 q 0.58420006,0 0.77893341,-0.16228 0.19473336,-0.19473 0.19473336,-0.77893 V 238.8195 H 3.5836319 v 2.14207 q 0,2.85609 -3.05082253,2.85609 H -2.5504687 q -3.018367,0 -3.018367,-2.85609 v -10.09368 q 0,-2.88855 3.018367,-2.88855 h 3.08327807 q 3.05082253,0 3.05082253,2.88855 z"
         style="font-style:normal;font-variant:normal;font-weight:normal;font-stretch:normal;font-size:32.45555878px;line-height:0.95999998;font-family:Teko;-inkscape-font-specification:Teko;stroke-width:0.26458332"
         id="path864"
         inkscape:connector-curvature="0" />
      <path
         d="m 11.051451,223.50048 h 7.075312 q 3.018367,0 3.018367,2.85609 v 14.605 q 0,2.85609 -3.018367,2.85609 h -7.075312 z m 7.140223,17.07162 v -13.82607 q 0,-0.5842 -0.194733,-0.74647 -0.194734,-0.19474 -0.778934,-0.19474 h -3.2131 v 15.70849 h 3.2131 q 0.5842,0 0.778934,-0.16227 0.194733,-0.19474 0.194733,-0.77894 z"
         style="font-style:normal;font-variant:normal;font-weight:normal;font-stretch:normal;font-size:32.45555878px;line-height:0.95999998;font-family:Teko;-inkscape-font-specification:Teko;stroke-width:0.26458332"
         id="path866"
         inkscape:connector-curvature="0" />
      <path
         d="m 27.055596,227.97934 h 3.180644 q 3.050823,0 3.050823,2.88855 v 5.93937 h -6.393745 v 3.76484 q 0,0.55175 0.194733,0.74648 0.194734,0.19473 0.778934,0.19473 h 1.492955 q 0.5842,0 0.778934,-0.19473 0.194733,-0.19473 0.194733,-0.77893 v -1.29823 h 2.856089 v 1.72015 q 0,2.85609 -3.018367,2.85609 h -3.115733 q -3.018367,0 -3.018367,-2.85609 v -10.09368 q 0,-2.88855 3.018367,-2.88855 z m -0.162278,6.68585 h 3.5052 v -3.44029 q 0,-0.55174 -0.194733,-0.74648 -0.162278,-0.19473 -0.746478,-0.19473 h -1.590322 q -0.5842,0 -0.778934,0.19473 -0.194733,0.19474 -0.194733,0.74648 z"
         style="font-style:normal;font-variant:normal;font-weight:normal;font-stretch:normal;font-size:32.45555878px;line-height:0.95999998;font-family:Teko;-inkscape-font-specification:Teko;stroke-width:0.26458332"
         id="path868"
         inkscape:connector-curvature="0" />
      <path
         d="m 41.056107,240.63701 v -2.6289 q 0,-0.5842 -0.194733,-0.74648 -0.194733,-0.19473 -0.778933,-0.19473 h -1.655234 q -3.018367,0 -3.018367,-2.85609 v -3.34292 q 0,-2.88855 3.018367,-2.88855 h 2.369256 q 3.050822,0 3.050822,2.88855 v 1.52541 h -2.856089 v -1.23331 q 0,-0.5842 -0.194733,-0.74648 -0.194733,-0.19473 -0.778934,-0.19473 h -0.778933 q -0.5842,0 -0.778933,0.19473 -0.194734,0.16228 -0.194734,0.74648 v 2.72627 q 0,0.5842 0.194734,0.77893 0.194733,0.16228 0.778933,0.16228 h 1.687689 q 2.985912,0 2.985912,2.88854 v 3.24556 q 0,2.85609 -3.018367,2.85609 h -2.401712 q -3.018367,0 -3.018367,-2.85609 v -1.55787 h 2.856089 v 1.23331 q 0,0.5842 0.194734,0.77894 0.194733,0.16227 0.778933,0.16227 h 0.778934 q 0.5842,0 0.778933,-0.16227 0.194733,-0.19474 0.194733,-0.77894 z"
         style="font-style:normal;font-variant:normal;font-weight:normal;font-stretch:normal;font-size:32.45555878px;line-height:0.95999998;font-family:Teko;-inkscape-font-specification:Teko;stroke-width:0.26458332"
         id="path870"
         inkscape:connector-curvature="0" />
      <path
         d="m 46.350415,224.96098 v -2.88855 h 3.050823 v 2.88855 z m 2.985912,18.85668 h -2.921001 v -15.83832 h 2.921001 z"
         style="font-style:normal;font-variant:normal;font-weight:normal;font-stretch:normal;font-size:32.45555878px;line-height:0.95999998;font-family:Teko;-inkscape-font-specification:Teko;stroke-width:0.26458332"
         id="path872"
         inkscape:connector-curvature="0" />
      <path
         d="m 58.090716,227.97934 h 2.921001 v 17.4611 q 0,2.85608 -3.050823,2.85608 h -5.420078 v -2.30434 h 4.576234 q 0.5842,0 0.778933,-0.19473 0.194733,-0.19474 0.194733,-0.74648 v -2.69381 q -0.421922,1.26576 -2.012244,1.26576 h -1.1684 q -2.921001,0 -2.921001,-2.88854 v -9.86649 q 0,-2.88855 2.921001,-2.88855 h 1.1684 q 1.590322,0 2.012244,1.26577 z m -2.206978,13.27433 h 1.135945 q 0.5842,0 0.811389,-0.25965 0.259644,-0.25964 0.259644,-0.8763 v -8.63317 q 0,-0.61666 -0.259644,-0.8763 -0.227189,-0.25965 -0.811389,-0.25965 h -1.135945 q -0.5842,0 -0.778933,0.19473 -0.194733,0.16228 -0.194733,0.74648 v 9.02265 q 0,0.55174 0.194733,0.74647 0.194733,0.19474 0.778933,0.19474 z"
         style="font-style:normal;font-variant:normal;font-weight:normal;font-stretch:normal;font-size:32.45555878px;line-height:0.95999998;font-family:Teko;-inkscape-font-specification:Teko;stroke-width:0.26458332"
         id="path874"
         inkscape:connector-curvature="0" />
      <path
         d="m 68.780761,227.97934 h 1.135945 q 2.953456,0 2.953456,2.88855 v 12.94977 h -2.921001 v -12.52785 q 0,-0.5842 -0.194733,-0.74648 -0.194733,-0.19473 -0.778933,-0.19473 H 67.83955 q -0.5842,0 -0.843844,0.25965 -0.227189,0.25964 -0.227189,0.8763 v 12.33311 h -2.921001 v -15.83832 h 2.921001 v 1.26577 q 0.421922,-1.26577 2.012244,-1.26577 z"
         style="font-style:normal;font-variant:normal;font-weight:normal;font-stretch:normal;font-size:32.45555878px;line-height:0.95999998;font-family:Teko;-inkscape-font-specification:Teko;stroke-width:0.26458332"
         id="path876"
         inkscape:connector-curvature="0" />
      <path
         d="M 88.116663,243.81766 87.305274,239.1116 H 83.02114 l -0.746478,4.70606 h -2.921 l 3.602567,-20.31718 h 4.251678 l 3.862212,20.31718 z m -4.738512,-7.07531 h 3.537656 L 85.06584,226.03201 Z"
         style="font-style:normal;font-variant:normal;font-weight:normal;font-stretch:normal;font-size:32.45555878px;line-height:0.95999998;font-family:Teko;-inkscape-font-specification:Teko;stroke-width:0.26458332"
         id="path878"
         inkscape:connector-curvature="0" />
      <path
         d="m 98.949222,227.97934 h 2.920998 v 15.83832 h -2.920998 v -1.26577 q -0.421922,1.26577 -2.012244,1.26577 h -1.1684 q -2.921001,0 -2.921001,-2.85609 v -12.98223 h 2.921001 v 12.52785 q 0,0.5842 0.194733,0.77893 0.194733,0.16228 0.778933,0.16228 h 1.135945 q 0.5842,0 0.811389,-0.25964 0.259644,-0.25965 0.259644,-0.8763 z"
         style="font-style:normal;font-variant:normal;font-weight:normal;font-stretch:normal;font-size:32.45555878px;line-height:0.95999998;font-family:Teko;-inkscape-font-specification:Teko;stroke-width:0.26458332"
         id="path880"
         inkscape:connector-curvature="0" />
      <path
         d="m 110.08908,230.3486 h -2.17452 v 10.02877 q 0,0.5842 0.16228,0.77893 0.19473,0.16228 0.77893,0.16228 h 1.23331 v 2.49908 h -2.07715 q -3.05083,0 -3.05083,-2.85609 V 230.3486 h -1.49295 v -2.36926 h 1.49295 v -2.69381 h 2.95346 v 2.69381 h 2.17452 z"
         style="font-style:normal;font-variant:normal;font-weight:normal;font-stretch:normal;font-size:32.45555878px;line-height:0.95999998;font-family:Teko;-inkscape-font-specification:Teko;stroke-width:0.26458332"
         id="path882"
         inkscape:connector-curvature="0" />
      <path
         d="m 114.6572,227.97934 h 3.47275 q 3.01837,0 3.01837,2.88855 v 10.09368 q 0,2.85609 -3.01837,2.85609 h -3.47275 q -2.98591,0 -2.98591,-2.85609 v -10.09368 q 0,-2.88855 2.98591,-2.88855 z m 3.60257,12.56031 v -9.28229 q 0,-0.5842 -0.19473,-0.77894 -0.19474,-0.19473 -0.77894,-0.19473 h -1.78505 q -0.5842,0 -0.77894,0.19473 -0.16227,0.19474 -0.16227,0.77894 v 9.28229 q 0,0.5842 0.16227,0.77893 0.19474,0.19473 0.77894,0.19473 h 1.78505 q 0.5842,0 0.77894,-0.19473 0.19473,-0.19473 0.19473,-0.77893 z"
         style="font-style:normal;font-variant:normal;font-weight:normal;font-stretch:normal;font-size:32.45555878px;line-height:0.95999998;font-family:Teko;-inkscape-font-specification:Teko;stroke-width:0.26458332"
         id="path884"
         inkscape:connector-curvature="0" />
      <path
         d="m 134.84913,227.97934 h 1.13594 q 2.921,0 2.921,2.88855 v 12.94977 h -2.921 v -12.52785 q 0,-0.5842 -0.19473,-0.74648 -0.16228,-0.19473 -0.74648,-0.19473 h -1.1684 q -1.03858,0 -1.03858,1.13595 v 12.33311 h -2.921 v -12.52785 q 0,-0.5842 -0.19473,-0.74648 -0.19473,-0.19473 -0.77893,-0.19473 h -1.13595 q -0.5842,0 -0.84384,0.25965 -0.22719,0.25964 -0.22719,0.8763 v 12.33311 h -2.921 v -15.83832 h 2.921 v 1.26577 q 0.42192,-1.26577 2.01224,-1.26577 h 1.13595 q 2.07715,0 2.69381,1.4605 0.38946,-1.4605 2.27189,-1.4605 z"
         style="font-style:normal;font-variant:normal;font-weight:normal;font-stretch:normal;font-size:32.45555878px;line-height:0.95999998;font-family:Teko;-inkscape-font-specification:Teko;stroke-width:0.26458332"
         id="path886"
         inkscape:connector-curvature="0" />
      <path
         d="m 147.53366,227.97934 h 2.921 v 15.83832 h -2.921 v -1.26577 q -0.42192,1.26577 -2.01224,1.26577 h -1.1684 q -2.921,0 -2.921,-2.85609 v -10.09368 q 0,-2.88855 2.921,-2.88855 h 1.1684 q 1.59032,0 2.01224,1.26577 z m -2.20697,13.46906 h 1.13594 q 0.5842,0 0.81139,-0.25964 0.25964,-0.25965 0.25964,-0.8763 v -8.82791 q 0,-0.61666 -0.25964,-0.8763 -0.22719,-0.25965 -0.81139,-0.25965 h -1.13594 q -0.5842,0 -0.77894,0.19473 -0.19473,0.16228 -0.19473,0.74648 v 9.21738 q 0,0.5842 0.19473,0.77893 0.19474,0.16228 0.77894,0.16228 z"
         style="font-style:normal;font-variant:normal;font-weight:normal;font-stretch:normal;font-size:32.45555878px;line-height:0.95999998;font-family:Teko;-inkscape-font-specification:Teko;stroke-width:0.26458332"
         id="path888"
         inkscape:connector-curvature="0" />
      <path
         d="m 158.64565,230.3486 h -2.17453 v 10.02877 q 0,0.5842 0.16228,0.77893 0.19473,0.16228 0.77893,0.16228 h 1.23332 v 2.49908 h -2.07716 q -3.05082,0 -3.05082,-2.85609 V 230.3486 h -1.49296 v -2.36926 h 1.49296 v -2.69381 h 2.95345 v 2.69381 h 2.17453 z"
         style="font-style:normal;font-variant:normal;font-weight:normal;font-stretch:normal;font-size:32.45555878px;line-height:0.95999998;font-family:Teko;-inkscape-font-specification:Teko;stroke-width:0.26458332"
         id="path890"
         inkscape:connector-curvature="0" />
      <path
         d="m 160.32521,224.96098 v -2.88855 h 3.05082 v 2.88855 z m 2.98591,18.85668 h -2.921 v -15.83832 h 2.921 z"
         style="font-style:normal;font-variant:normal;font-weight:normal;font-stretch:normal;font-size:32.45555878px;line-height:0.95999998;font-family:Teko;-inkscape-font-specification:Teko;stroke-width:0.26458332"
         id="path892"
         inkscape:connector-curvature="0" />
      <path
         d="m 168.98223,227.97934 h 3.47275 q 3.01836,0 3.01836,2.88855 v 10.09368 q 0,2.85609 -3.01836,2.85609 h -3.47275 q -2.98591,0 -2.98591,-2.85609 v -10.09368 q 0,-2.88855 2.98591,-2.88855 z m 3.60257,12.56031 v -9.28229 q 0,-0.5842 -0.19474,-0.77894 -0.19473,-0.19473 -0.77893,-0.19473 h -1.78505 q -0.5842,0 -0.77894,0.19473 -0.16228,0.19474 -0.16228,0.77894 v 9.28229 q 0,0.5842 0.16228,0.77893 0.19474,0.19473 0.77894,0.19473 h 1.78505 q 0.5842,0 0.77893,-0.19473 0.19474,-0.19473 0.19474,-0.77893 z"
         style="font-style:normal;font-variant:normal;font-weight:normal;font-stretch:normal;font-size:32.45555878px;line-height:0.95999998;font-family:Teko;-inkscape-font-specification:Teko;stroke-width:0.26458332"
         id="path894"
         inkscape:connector-curvature="0" />
      <path
         d="m 183.07249,227.97934 h 1.13595 q 2.95345,0 2.95345,2.88855 v 12.94977 h -2.921 v -12.52785 q 0,-0.5842 -0.19473,-0.74648 -0.19473,-0.19473 -0.77893,-0.19473 h -1.13595 q -0.5842,0 -0.84384,0.25965 -0.22719,0.25964 -0.22719,0.8763 v 12.33311 h -2.921 v -15.83832 h 2.921 v 1.26577 q 0.42192,-1.26577 2.01224,-1.26577 z"
         style="font-style:normal;font-variant:normal;font-weight:normal;font-stretch:normal;font-size:32.45555878px;line-height:0.95999998;font-family:Teko;-inkscape-font-specification:Teko;stroke-width:0.26458332"
         id="path896"
         inkscape:connector-curvature="0" />
      <path
         d="m 202.40841,243.81766 -0.81139,-4.70606 h -4.28413 l -0.74648,4.70606 h -2.921 l 3.60257,-20.31718 h 4.25168 l 3.86221,20.31718 z m -4.73851,-7.07531 h 3.53766 l -1.84997,-10.71034 z"
         style="font-style:normal;font-variant:normal;font-weight:normal;font-stretch:normal;font-size:32.45555878px;line-height:0.95999998;font-family:Teko;-inkscape-font-specification:Teko;stroke-width:0.26458332"
         id="path898"
         inkscape:connector-curvature="0" />
      <path
         d="m 212.10503,227.94689 h 1.13594 q 2.95346,0 2.95346,2.88854 v 10.12614 q 0,2.85609 -2.95346,2.85609 h -1.13594 q -1.59033,0 -2.01225,-1.26577 v 1.26577 h -2.921 v -21.71277 h 2.921 v 7.10777 q 0.42192,-1.26577 2.01225,-1.26577 z m 1.1684,12.5603 v -9.24983 q 0,-0.55175 -0.19474,-0.74648 -0.19473,-0.19473 -0.77893,-0.19473 h -1.13595 q -0.5842,0 -0.84384,0.25964 -0.22719,0.25964 -0.22719,0.8763 v 8.86037 q 0,0.61665 0.22719,0.8763 0.25964,0.25964 0.84384,0.25964 h 1.13595 q 0.5842,0 0.77893,-0.16228 0.19474,-0.19473 0.19474,-0.77893 z"
         style="font-style:normal;font-variant:normal;font-weight:normal;font-stretch:normal;font-size:32.45555878px;line-height:0.95999998;font-family:Teko;-inkscape-font-specification:Teko;stroke-width:0.26458332"
         id="path900"
         inkscape:connector-curvature="0" />
      <path
         d="m 224.12573,240.63701 v -2.6289 q 0,-0.5842 -0.19473,-0.74648 -0.19473,-0.19473 -0.77893,-0.19473 h -1.65524 q -3.01836,0 -3.01836,-2.85609 v -3.34292 q 0,-2.88855 3.01836,-2.88855 h 2.36926 q 3.05082,0 3.05082,2.88855 v 1.52541 h -2.85609 v -1.23331 q 0,-0.5842 -0.19473,-0.74648 -0.19473,-0.19473 -0.77893,-0.19473 h -0.77894 q -0.5842,0 -0.77893,0.19473 -0.19473,0.16228 -0.19473,0.74648 v 2.72627 q 0,0.5842 0.19473,0.77893 0.19473,0.16228 0.77893,0.16228 h 1.68769 q 2.98591,0 2.98591,2.88854 v 3.24556 q 0,2.85609 -3.01836,2.85609 h -2.40172 q -3.01836,0 -3.01836,-2.85609 v -1.55787 h 2.85609 v 1.23331 q 0,0.5842 0.19473,0.77894 0.19473,0.16227 0.77893,0.16227 h 0.77894 q 0.5842,0 0.77893,-0.16227 0.19473,-0.19474 0.19473,-0.77894 z"
         style="font-style:normal;font-variant:normal;font-weight:normal;font-stretch:normal;font-size:32.45555878px;line-height:0.95999998;font-family:Teko;-inkscape-font-specification:Teko;stroke-width:0.26458332"
         id="path902"
         inkscape:connector-curvature="0" />
      <path
         d="m 234.84012,230.3486 h -2.17452 v 10.02877 q 0,0.5842 0.16227,0.77893 0.19474,0.16228 0.77894,0.16228 h 1.23331 v 2.49908 h -2.07716 q -3.05082,0 -3.05082,-2.85609 V 230.3486 h -1.49295 v -2.36926 h 1.49295 v -2.69381 h 2.95346 v 2.69381 h 2.17452 z"
         style="font-style:normal;font-variant:normal;font-weight:normal;font-stretch:normal;font-size:32.45555878px;line-height:0.95999998;font-family:Teko;-inkscape-font-specification:Teko;stroke-width:0.26458332"
         id="path904"
         inkscape:connector-curvature="0" />
      <path
         d="m 242.06961,227.94689 h 0.64911 v 2.53153 h -1.1684 q -2.0447,0 -2.0447,2.40171 v 10.93753 h -2.921 v -15.83832 h 2.921 v 1.94734 q 0.25965,-0.84385 0.90876,-1.39559 0.68157,-0.5842 1.65523,-0.5842 z"
         style="font-style:normal;font-variant:normal;font-weight:normal;font-stretch:normal;font-size:32.45555878px;line-height:0.95999998;font-family:Teko;-inkscape-font-specification:Teko;stroke-width:0.26458332"
         id="path906"
         inkscape:connector-curvature="0" />
      <path
         d="m 250.22509,227.97934 h 2.921 v 15.83832 h -2.921 v -1.26577 q -0.42193,1.26577 -2.01225,1.26577 h -1.1684 q -2.921,0 -2.921,-2.85609 v -10.09368 q 0,-2.88855 2.921,-2.88855 h 1.1684 q 1.59032,0 2.01225,1.26577 z m -2.20698,13.46906 h 1.13594 q 0.5842,0 0.81139,-0.25964 0.25965,-0.25965 0.25965,-0.8763 v -8.82791 q 0,-0.61666 -0.25965,-0.8763 -0.22719,-0.25965 -0.81139,-0.25965 h -1.13594 q -0.5842,0 -0.77894,0.19473 -0.19473,0.16228 -0.19473,0.74648 v 9.21738 q 0,0.5842 0.19473,0.77893 0.19474,0.16228 0.77894,0.16228 z"
         style="font-style:normal;font-variant:normal;font-weight:normal;font-stretch:normal;font-size:32.45555878px;line-height:0.95999998;font-family:Teko;-inkscape-font-specification:Teko;stroke-width:0.26458332"
         id="path908"
         inkscape:connector-curvature="0" />
      <path
         d="m 264.93963,232.9775 h -2.88854 v -1.68769 q 0,-0.5842 -0.19473,-0.74648 -0.19474,-0.19473 -0.77894,-0.19473 h -1.39559 q -0.5842,0 -0.77893,0.19473 -0.19473,0.16228 -0.19473,0.74648 v 9.21738 q 0,0.5842 0.19473,0.77893 0.19473,0.16228 0.77893,0.16228 h 1.39559 q 0.5842,0 0.77894,-0.16228 0.19473,-0.19473 0.19473,-0.77893 v -1.68769 h 2.88854 v 2.14207 q 0,2.85609 -3.05082,2.85609 h -3.08328 q -3.01836,0 -3.01836,-2.85609 v -10.09368 q 0,-2.88855 3.01836,-2.88855 h 3.08328 q 3.05082,0 3.05082,2.88855 z"
         style="font-style:normal;font-variant:normal;font-weight:normal;font-stretch:normal;font-size:32.45555878px;line-height:0.95999998;font-family:Teko;-inkscape-font-specification:Teko;stroke-width:0.26458332"
         id="path910"
         inkscape:connector-curvature="0" />
      <path
         d="m 272.74722,230.3486 h -2.17452 v 10.02877 q 0,0.5842 0.16228,0.77893 0.19473,0.16228 0.77893,0.16228 h 1.23331 v 2.49908 h -2.07715 q -3.05082,0 -3.05082,-2.85609 V 230.3486 h -1.49296 v -2.36926 h 1.49296 v -2.69381 h 2.95345 v 2.69381 h 2.17452 z"
         style="font-style:normal;font-variant:normal;font-weight:normal;font-stretch:normal;font-size:32.45555878px;line-height:0.95999998;font-family:Teko;-inkscape-font-specification:Teko;stroke-width:0.26458332"
         id="path912"
         inkscape:connector-curvature="0" />
      <path
         d="m 274.42679,224.96098 v -2.88855 h 3.05082 v 2.88855 z m 2.98591,18.85668 h -2.921 v -15.83832 h 2.921 z"
         style="font-style:normal;font-variant:normal;font-weight:normal;font-stretch:normal;font-size:32.45555878px;line-height:0.95999998;font-family:Teko;-inkscape-font-specification:Teko;stroke-width:0.26458332"
         id="path914"
         inkscape:connector-curvature="0" />
      <path
         d="m 283.08379,227.97934 h 3.47275 q 3.01837,0 3.01837,2.88855 v 10.09368 q 0,2.85609 -3.01837,2.85609 h -3.47275 q -2.98591,0 -2.98591,-2.85609 v -10.09368 q 0,-2.88855 2.98591,-2.88855 z m 3.60257,12.56031 v -9.28229 q 0,-0.5842 -0.19473,-0.77894 -0.19474,-0.19473 -0.77894,-0.19473 h -1.78505 q -0.5842,0 -0.77894,0.19473 -0.16227,0.19474 -0.16227,0.77894 v 9.28229 q 0,0.5842 0.16227,0.77893 0.19474,0.19473 0.77894,0.19473 h 1.78505 q 0.5842,0 0.77894,-0.19473 0.19473,-0.19473 0.19473,-0.77893 z"
         style="font-style:normal;font-variant:normal;font-weight:normal;font-stretch:normal;font-size:32.45555878px;line-height:0.95999998;font-family:Teko;-inkscape-font-specification:Teko;stroke-width:0.26458332"
         id="path916"
         inkscape:connector-curvature="0" />
      <path
         d="m 297.17409,227.97934 h 1.13594 q 2.95346,0 2.95346,2.88855 v 12.94977 h -2.921 v -12.52785 q 0,-0.5842 -0.19474,-0.74648 -0.19473,-0.19473 -0.77893,-0.19473 h -1.13594 q -0.5842,0 -0.84385,0.25965 -0.22719,0.25964 -0.22719,0.8763 v 12.33311 h -2.921 v -15.83832 h 2.921 v 1.26577 q 0.42192,-1.26577 2.01225,-1.26577 z"
         style="font-style:normal;font-variant:normal;font-weight:normal;font-stretch:normal;font-size:32.45555878px;line-height:0.95999998;font-family:Teko;-inkscape-font-specification:Teko;stroke-width:0.26458332"
         id="path918"
         inkscape:connector-curvature="0" />
    </g>
    <g
       transform="matrix(0.26562092,0,0,0.26562092,55.207321,357.06837)"
       id="g1588"
       style="fill:#000000;fill-opacity:1"
       inkscape:export-filename="C:\Users\eine\Desktop\edaa_logo_draft.png"
       inkscape:export-xdpi="64.031998"
       inkscape:export-ydpi="64.031998">
      <g
         aria-label="EDA"
         style="font-style:normal;font-weight:normal;font-size:39.84375px;line-height:1.25;font-family:sans-serif;letter-spacing:0px;word-spacing:0px;fill:#000000;fill-opacity:1;stroke:none;stroke-width:0.99609375"
         id="text1502">
        <path
           d="M 145.37338,-654.40546 H 265.5687 v 48.47657 H 84.943695 V -1021.632 H 260.92026 v 48.47654 H 145.37338 v 128.16407 h 95.625 v 48.47656 h -95.625 z"
           style="font-style:normal;font-variant:normal;font-weight:normal;font-stretch:normal;font-size:664.0625px;font-family:Teko;-inkscape-font-specification:Teko;fill:#000000;fill-opacity:1;stroke-width:0.99609375"
           id="path836"
           inkscape:connector-curvature="0" />
        <path
           d="m 314.5433,-1021.632 h 144.76563 q 61.75781,0 61.75781,58.43748 v 298.82813 q 0,58.4375 -61.75781,58.4375 H 314.5433 Z m 146.09375,349.29686 v -282.89063 q 0,-11.95312 -3.98437,-15.27344 -3.98438,-3.98437 -15.9375,-3.98437 h -65.74219 v 321.40625 h 65.74219 q 11.95312,0 15.9375,-3.32031 3.98437,-3.98438 3.98437,-15.9375 z"
           style="font-style:normal;font-variant:normal;font-weight:normal;font-stretch:normal;font-size:664.0625px;font-family:Teko;-inkscape-font-specification:Teko;fill:#000000;fill-opacity:1;stroke-width:0.99609375"
           id="path838"
           inkscape:connector-curvature="0" />
        <path
           d="m 739.61594,-605.92889 -16.60157,-96.28907 h -87.65625 l -15.27343,96.28907 H 560.31906 L 634.03,-1021.632 h 86.99219 l 79.02343,415.70311 z m -96.95313,-144.76563 h 72.38281 l -37.85156,-219.14062 z"
           style="font-style:normal;font-variant:normal;font-weight:normal;font-stretch:normal;font-size:664.0625px;font-family:Teko;-inkscape-font-specification:Teko;fill:#000000;fill-opacity:1;stroke-width:0.99609375"
           id="path840"
           inkscape:connector-curvature="0" />
      </g>
      <g
         aria-label="2"
         style="font-style:normal;font-weight:normal;font-size:39.84375px;line-height:1.25;font-family:sans-serif;letter-spacing:0px;word-spacing:0px;fill:#000000;fill-opacity:1;stroke:none;stroke-width:0.99609375"
         id="text1502-4">
        <path
           d="m 851.11035,-1079.9187 v 40.6406 h -35.85937 v -46.2187 q 0,-35.0625 37.05468,-35.0625 h 34.26563 q 37.45312,0 37.45312,35.0625 v 25.1015 q 0,27.8907 -13.94531,54.586 l -53.78906,105.58591 h 69.32812 v 29.08594 H 815.64941 v -27.89063 l 60.96094,-114.75002 q 11.15625,-21.1172 11.15625,-47.8125 v -18.3281 q 0,-7.1719 -2.39062,-9.1641 -1.99219,-2.3906 -9.5625,-2.3906 h -12.75 q -7.17188,0 -9.5625,2.3906 -2.39063,1.9922 -2.39063,9.1641 z"
           style="font-style:normal;font-variant:normal;font-weight:normal;font-stretch:normal;font-size:398.4375px;font-family:Teko;-inkscape-font-specification:Teko;fill:#000000;fill-opacity:1;stroke-width:0.99609375"
           id="path843"
           inkscape:connector-curvature="0" />
      </g>
    </g>
  </g>
</svg>
