<?xml version="1.0" encoding="UTF-8" standalone="no"?>
<!-- Created with Inkscape (http://www.inkscape.org/) -->

<svg
   xmlns:dc="http://purl.org/dc/elements/1.1/"
   xmlns:cc="http://creativecommons.org/ns#"
   xmlns:rdf="http://www.w3.org/1999/02/22-rdf-syntax-ns#"
   xmlns:svg="http://www.w3.org/2000/svg"
   xmlns="http://www.w3.org/2000/svg"
   xmlns:sodipodi="http://sodipodi.sourceforge.net/DTD/sodipodi-0.dtd"
   xmlns:inkscape="http://www.inkscape.org/namespaces/inkscape"
   width="78.591721mm"
   height="16.811653mm"
   viewBox="0 0 78.591721 16.811653"
   version="1.1"
   id="svg2018"
   inkscape:version="0.92.4 (5da689c313, 2019-01-14)"
   sodipodi:docname="osvb_banner_white.svg">
  <defs
     id="defs2012" />
  <sodipodi:namedview
     id="base"
     pagecolor="#ffffff"
     bordercolor="#666666"
     borderopacity="1.0"
     inkscape:pageopacity="0.0"
     inkscape:pageshadow="2"
     inkscape:zoom="3.959798"
     inkscape:cx="142.68233"
     inkscape:cy="28.311622"
     inkscape:document-units="mm"
     inkscape:current-layer="layer1"
     showgrid="false"
     inkscape:window-width="1920"
     inkscape:window-height="1017"
     inkscape:window-x="1912"
     inkscape:window-y="1072"
     inkscape:window-maximized="1"
     fit-margin-top="0"
     fit-margin-left="0"
     fit-margin-right="0"
     fit-margin-bottom="0" />
  <metadata
     id="metadata2015">
    <rdf:RDF>
      <cc:Work
         rdf:about="">
        <dc:format>image/svg+xml</dc:format>
        <dc:type
           rdf:resource="http://purl.org/dc/dcmitype/StillImage" />
        <dc:title></dc:title>
      </cc:Work>
    </rdf:RDF>
  </metadata>
  <g
     inkscape:label="Layer 1"
     inkscape:groupmode="layer"
     id="layer1"
     transform="translate(-35.609568,-144.18968)">
    <g
       id="g2732"
       inkscape:export-xdpi="161.66167"
       inkscape:export-ydpi="161.66167">
      <g
         inkscape:export-ydpi="220.58615"
         inkscape:export-xdpi="220.58615"
         style="fill:#e7bf5f;fill-opacity:1;stroke:#000000;stroke-width:0.5;stroke-linejoin:round;stroke-miterlimit:4;stroke-dasharray:none;stroke-opacity:1"
         transform="matrix(0.26458333,0,0,0.26458333,35.411131,144.16932)"
         id="g1844">
        <g
           style="fill:#e7bf5f;fill-opacity:1;stroke:#000000;stroke-width:0.5;stroke-linejoin:round;stroke-miterlimit:4;stroke-dasharray:none;stroke-opacity:1"
           id="g1842">
          <polygon
             style="fill:#e7bf5f;fill-opacity:1;stroke:#000000;stroke-width:0.5;stroke-linejoin:round;stroke-miterlimit:4;stroke-dasharray:none;stroke-opacity:1"
             id="polygon1840"
             points="44,19 44,29 52,26 52,16 51.9,15.9 63,12 63,50 32,63 32,23 43.6,18.9 " />
        </g>
      </g>
      <g
         inkscape:export-ydpi="220.58615"
         inkscape:export-xdpi="220.58615"
         style="fill:#efc75f;fill-opacity:1;stroke:#000000;stroke-width:0.5;stroke-linejoin:round;stroke-miterlimit:4;stroke-dasharray:none;stroke-opacity:1"
         transform="matrix(0.26458333,0,0,0.26458333,35.411131,144.16932)"
         id="g1850">
        <g
           style="fill:#efc75f;fill-opacity:1;stroke:#000000;stroke-width:0.5;stroke-linejoin:round;stroke-miterlimit:4;stroke-dasharray:none;stroke-opacity:1"
           id="g1848">
          <polygon
             style="fill:#efc75f;fill-opacity:1;stroke:#000000;stroke-width:0.5;stroke-linejoin:round;stroke-miterlimit:4;stroke-dasharray:none;stroke-opacity:1"
             id="polygon1846"
             points="51.9,15.9 22,5 21.9,4.7 32,1 63,12 " />
        </g>
      </g>
      <g
         inkscape:export-ydpi="220.58615"
         inkscape:export-xdpi="220.58615"
         style="stroke:#000000;stroke-width:0.5;stroke-miterlimit:4;stroke-dasharray:none;stroke-opacity:1"
         transform="matrix(0.26458333,0,0,0.26458333,35.411131,144.16932)"
         id="g1856">
        <g
           style="stroke:#000000;stroke-width:0.5;stroke-miterlimit:4;stroke-dasharray:none;stroke-opacity:1"
           id="g1854">
          <polygon
             style="fill:#f7e3af;stroke:#000000;stroke-width:0.5;stroke-miterlimit:4;stroke-dasharray:none;stroke-opacity:1"
             id="polygon1852"
             points="51.9,15.9 52,16 52,26 44,29 44,19 43.6,18.9 " />
        </g>
      </g>
      <g
         inkscape:export-ydpi="220.58615"
         inkscape:export-xdpi="220.58615"
         style="stroke:#000000;stroke-width:0.5;stroke-miterlimit:4;stroke-dasharray:none;stroke-opacity:1"
         transform="matrix(0.26458333,0,0,0.26458333,35.411131,144.16932)"
         id="g1862">
        <g
           style="stroke:#000000;stroke-width:0.5;stroke-miterlimit:4;stroke-dasharray:none;stroke-opacity:1"
           id="g1860">
          <polygon
             style="fill:#f7e3af;stroke:#000000;stroke-width:0.5;stroke-miterlimit:4;stroke-dasharray:none;stroke-opacity:1"
             id="polygon1858"
             points="14,8 13.9,7.6 21.9,4.7 22,5 51.9,15.9 43.6,18.9 " />
        </g>
      </g>
      <g
         inkscape:export-ydpi="220.58615"
         inkscape:export-xdpi="220.58615"
         style="fill:#efc75f;fill-opacity:1;stroke:#000000;stroke-width:0.5;stroke-linejoin:round;stroke-miterlimit:4;stroke-dasharray:none;stroke-opacity:1"
         transform="matrix(0.26458333,0,0,0.26458333,35.411131,144.16932)"
         id="g1868">
        <g
           style="fill:#efc75f;fill-opacity:1;stroke:#000000;stroke-width:0.5;stroke-linejoin:round;stroke-miterlimit:4;stroke-dasharray:none;stroke-opacity:1"
           id="g1866">
          <polygon
             style="fill:#efc75f;fill-opacity:1;stroke:#000000;stroke-width:0.5;stroke-linejoin:round;stroke-miterlimit:4;stroke-dasharray:none;stroke-opacity:1"
             id="polygon1864"
             points="1,12.2 13.9,7.6 14,8 43.6,18.9 32,23 " />
        </g>
      </g>
      <g
         inkscape:export-ydpi="220.58615"
         inkscape:export-xdpi="220.58615"
         style="fill:#d3a64f;fill-opacity:1;stroke:#000000;stroke-width:0.5;stroke-linejoin:round;stroke-miterlimit:4;stroke-dasharray:none;stroke-opacity:1"
         transform="matrix(0.26458333,0,0,0.26458333,35.411131,144.16932)"
         id="g1874">
        <g
           style="fill:#d3a64f;fill-opacity:1;stroke:#000000;stroke-width:0.5;stroke-linejoin:round;stroke-miterlimit:4;stroke-dasharray:none;stroke-opacity:1"
           id="g1872">
          <polygon
             style="fill:#d3a64f;fill-opacity:1;stroke:#000000;stroke-width:0.5;stroke-linejoin:round;stroke-miterlimit:4;stroke-dasharray:none;stroke-opacity:1"
             id="polygon1870"
             points="32,63 1,50 1,12.2 32,23 " />
        </g>
      </g>
      <g
         id="text1878"
         style="font-style:normal;font-weight:normal;font-size:10.58333302px;line-height:1.25;font-family:sans-serif;letter-spacing:0px;word-spacing:0px;fill:#000000;fill-opacity:1;stroke:none;stroke-width:0.13229166;stroke-miterlimit:4;stroke-dasharray:none;stroke-opacity:1"
         transform="rotate(22.500001)"
         aria-label="OSVB">
        <path
           inkscape:connector-curvature="0"
           id="path2698"
           style="font-style:normal;font-variant:normal;font-weight:normal;font-stretch:normal;font-size:5.29166698px;line-height:1;font-family:Teko;-inkscape-font-specification:Teko;letter-spacing:0px;word-spacing:0px;fill:#000000;fill-opacity:1;stroke:none;stroke-width:0.13229166;stroke-miterlimit:4;stroke-dasharray:none;stroke-opacity:1"
           d="m 91.742145,125.4115 0.551952,-0.2009 q 0.462447,-0.16832 0.621714,0.26927 l 0.814436,2.23764 q 0.159268,0.43758 -0.303179,0.6059 l -0.551952,0.2009 q -0.467418,0.17012 -0.626686,-0.26746 l -0.814436,-2.23764 q -0.159267,-0.43759 0.308151,-0.60771 z m 1.515236,2.39928 -0.76376,-2.09841 q -0.03258,-0.0895 -0.07146,-0.10351 -0.04069,-0.019 -0.130201,0.0136 l -0.288407,0.10497 q -0.08951,0.0326 -0.108482,0.0733 -0.01581,0.0339 0.01676,0.12341 l 0.76376,2.09842 q 0.03258,0.0895 0.0683,0.11029 0.03888,0.014 0.12839,-0.0186 l 0.288407,-0.10497 q 0.08951,-0.0326 0.110292,-0.0683 0.01898,-0.0407 -0.0136,-0.1302 z" />
        <path
           inkscape:connector-curvature="0"
           id="path2700"
           style="font-style:normal;font-variant:normal;font-weight:normal;font-stretch:normal;font-size:5.29166698px;line-height:1;font-family:Teko;-inkscape-font-specification:Teko;letter-spacing:0px;word-spacing:0px;fill:#000000;fill-opacity:1;stroke:none;stroke-width:0.13229166;stroke-miterlimit:4;stroke-dasharray:none;stroke-opacity:1"
           d="m 95.220405,127.85241 -0.276908,-0.7608 q -0.03258,-0.0895 -0.07146,-0.10351 -0.03572,-0.0208 -0.125228,0.0118 l -0.367968,0.13393 q -0.452501,0.1647 -0.613578,-0.27786 l -0.298627,-0.82047 q -0.159267,-0.43758 0.303179,-0.6059 l 0.487309,-0.17736 q 0.462446,-0.16832 0.621714,0.26926 l 0.166506,0.45748 -0.452501,0.1647 -0.141169,-0.38786 q -0.03258,-0.0895 -0.07146,-0.10351 -0.04069,-0.019 -0.1302,0.0136 l -0.208846,0.076 q -0.08951,0.0326 -0.108482,0.0733 -0.02079,0.0357 0.01179,0.12522 l 0.251571,0.69119 q 0.03258,0.0895 0.07327,0.10848 0.03888,0.014 0.128391,-0.0186 l 0.362995,-0.13212 q 0.457474,-0.1665 0.616741,0.27108 l 0.325775,0.89506 q 0.159267,0.43758 -0.308152,0.60771 l -0.482336,0.17555 q -0.462446,0.16832 -0.621714,-0.26926 l -0.166507,-0.45748 0.452501,-0.16469 0.141169,0.38785 q 0.03258,0.0895 0.07327,0.10849 0.03889,0.014 0.12839,-0.0186 l 0.208847,-0.076 q 0.08951,-0.0326 0.105319,-0.0665 0.01898,-0.0407 -0.0136,-0.1302 z" />
        <path
           inkscape:connector-curvature="0"
           id="path2702"
           style="font-style:normal;font-variant:normal;font-weight:normal;font-stretch:normal;font-size:5.29166698px;line-height:1;font-family:Teko;-inkscape-font-specification:Teko;letter-spacing:0px;word-spacing:0px;fill:#000000;fill-opacity:1;stroke:none;stroke-width:0.13229166;stroke-miterlimit:4;stroke-dasharray:none;stroke-opacity:1"
           d="m 96.353134,125.18526 0.462446,-0.16831 0.571074,3.31732 -0.636485,0.23166 -1.694868,-2.90829 0.462446,-0.16832 1.395474,2.54987 z" />
        <path
           inkscape:connector-curvature="0"
           id="path2704"
           style="font-style:normal;font-variant:normal;font-weight:normal;font-stretch:normal;font-size:5.29166698px;line-height:1;font-family:Teko;-inkscape-font-specification:Teko;letter-spacing:0px;word-spacing:0px;fill:#000000;fill-opacity:1;stroke:none;stroke-width:0.13229166;stroke-miterlimit:4;stroke-dasharray:none;stroke-opacity:1"
           d="m 98.745128,126.38273 -0.25881,-0.71107 q -0.03258,-0.0895 -0.07146,-0.10351 -0.04069,-0.019 -0.1302,0.0136 l -0.497254,0.18099 0.363782,0.99948 0.497254,-0.18099 q 0.08951,-0.0326 0.110291,-0.0683 0.01898,-0.0407 -0.0136,-0.1302 z m 0.51219,1.40723 -0.278719,-0.76577 q -0.03258,-0.0895 -0.07146,-0.10351 -0.04069,-0.019 -0.130201,0.0136 l -0.497254,0.18099 0.38369,1.05418 0.497254,-0.18099 q 0.08951,-0.0326 0.110292,-0.0683 0.01898,-0.0407 -0.0136,-0.1302 z m -2.045944,-2.21739 1.079041,-0.39274 q 0.467419,-0.17012 0.626686,0.26746 l 0.287767,0.79063 q 0.09592,0.26355 -0.08669,0.3807 0.217,-0.0227 0.303873,0.21601 l 0.309486,0.8503 q 0.159268,0.43759 -0.308151,0.60771 l -1.079041,0.39274 z" />
      </g>
      <path
         inkscape:export-ydpi="220.58615"
         inkscape:export-xdpi="220.58615"
         sodipodi:nodetypes="ccccccc"
         style="fill:#0000b9;fill-opacity:1;stroke:#000000;stroke-width:0.13229166;stroke-miterlimit:4;stroke-dasharray:none;stroke-opacity:1"
         id="path1880"
         d="m 45.656676,155.11463 1.571821,0.73296 1.563156,-3.3522 0.718597,0.33818 -1.89761,4.06944 -2.289058,-1.06741 0.333094,-0.72097"
         inkscape:connector-curvature="0" />
      <path
         inkscape:export-ydpi="220.58615"
         inkscape:export-xdpi="220.58615"
         inkscape:connector-curvature="0"
         d="m 47.148439,154.57168 1.571821,0.73295 1.563156,-3.3522 0.718595,0.33818 -1.89761,4.06944 -2.289059,-1.0674 0.333097,-0.72097"
         id="path1882"
         style="fill:#00b900;fill-opacity:1;stroke:#000000;stroke-width:0.13229166;stroke-miterlimit:4;stroke-dasharray:none;stroke-opacity:1"
         sodipodi:nodetypes="ccccccc" />
    </g>
    <g
       aria-label="Open Source Verification Bundle"
       style="font-style:normal;font-weight:normal;font-size:10.58333302px;line-height:1.25;font-family:sans-serif;letter-spacing:0px;word-spacing:0px;fill:#000000;fill-opacity:1;stroke:#000000;stroke-width:0.26458332;stroke-opacity:1"
       id="text881"
       inkscape:export-xdpi="161.66167"
       inkscape:export-ydpi="161.66167">
      <path
         d="m 57.054769,144.32197 h 1.17475 q 0.98425,0 0.98425,0.93134 v 4.7625 q 0,0.93133 -0.98425,0.93133 h -1.17475 q -0.994833,0 -0.994833,-0.93133 v -4.7625 q 0,-0.93134 0.994833,-0.93134 z m 1.2065,5.54567 v -4.46617 q 0,-0.1905 -0.0635,-0.24341 -0.0635,-0.0635 -0.254,-0.0635 h -0.613833 q -0.1905,0 -0.254,0.0635 -0.05292,0.0529 -0.05292,0.24341 v 4.46617 q 0,0.1905 0.05292,0.254 0.0635,0.0529 0.254,0.0529 h 0.613833 q 0.1905,0 0.254,-0.0529 0.0635,-0.0635 0.0635,-0.254 z"
         style="font-style:normal;font-variant:normal;font-weight:normal;font-stretch:normal;line-height:1;font-family:Teko;-inkscape-font-specification:Teko;fill:#ffffff;fill-opacity:1;stroke:#000000;stroke-width:0.26458332;stroke-opacity:1"
         id="path2619"
         inkscape:connector-curvature="0" />
      <path
         d="m 61.791638,145.78247 h 0.370416 q 0.963083,0 0.963083,0.94192 v 3.29142 q 0,0.93133 -0.963083,0.93133 h -0.370416 q -0.518584,0 -0.656167,-0.41275 v 1.87325 h -0.9525 v -6.62517 h 0.9525 v 0.41275 q 0.137583,-0.41275 0.656167,-0.41275 z m 0.380999,4.08517 v -3.00567 q 0,-0.1905 -0.0635,-0.24341 -0.0635,-0.0635 -0.254,-0.0635 h -0.370416 q -0.1905,0 -0.275167,0.0847 -0.07408,0.0847 -0.07408,0.28575 v 2.87867 q 0,0.20108 0.07408,0.28575 0.08467,0.0847 0.275167,0.0847 h 0.370416 q 0.1905,0 0.254,-0.0529 0.0635,-0.0635 0.0635,-0.254 z"
         style="font-style:normal;font-variant:normal;font-weight:normal;font-stretch:normal;line-height:1;font-family:Teko;-inkscape-font-specification:Teko;fill:#ffffff;fill-opacity:1;stroke:#000000;stroke-width:0.26458332;stroke-opacity:1"
         id="path2621"
         inkscape:connector-curvature="0" />
      <path
         d="m 64.949439,145.78247 h 1.037167 q 0.994833,0 0.994833,0.94192 v 1.93675 h -2.084916 v 1.22767 q 0,0.17991 0.0635,0.24341 0.0635,0.0635 0.254,0.0635 h 0.486833 q 0.1905,0 0.254,-0.0635 0.0635,-0.0635 0.0635,-0.254 v -0.42333 h 0.931333 v 0.56092 q 0,0.93133 -0.98425,0.93133 h -1.016 q -0.98425,0 -0.98425,-0.93133 v -3.29142 q 0,-0.94192 0.98425,-0.94192 z m -0.05292,2.18017 h 1.143 v -1.12183 q 0,-0.17992 -0.0635,-0.24342 -0.05292,-0.0635 -0.243417,-0.0635 h -0.518583 q -0.1905,0 -0.254,0.0635 -0.0635,0.0635 -0.0635,0.24342 z"
         style="font-style:normal;font-variant:normal;font-weight:normal;font-stretch:normal;line-height:1;font-family:Teko;-inkscape-font-specification:Teko;fill:#ffffff;fill-opacity:1;stroke:#000000;stroke-width:0.26458332;stroke-opacity:1"
         id="path2623"
         inkscape:connector-curvature="0" />
      <path
         d="m 69.398408,145.78247 h 0.370417 q 0.963083,0 0.963083,0.94192 v 4.22275 h -0.9525 v -4.08517 q 0,-0.1905 -0.0635,-0.24341 -0.0635,-0.0635 -0.254,-0.0635 h -0.370417 q -0.1905,0 -0.275166,0.0847 -0.07408,0.0847 -0.07408,0.28575 v 4.02167 h -0.9525 v -5.16467 h 0.9525 v 0.41275 q 0.137584,-0.41275 0.656167,-0.41275 z"
         style="font-style:normal;font-variant:normal;font-weight:normal;font-stretch:normal;line-height:1;font-family:Teko;-inkscape-font-specification:Teko;fill:#ffffff;fill-opacity:1;stroke:#000000;stroke-width:0.26458332;stroke-opacity:1"
         id="path2625"
         inkscape:connector-curvature="0" />
      <path
         d="m 75.174427,149.86764 v -1.61925 q 0,-0.1905 -0.0635,-0.24342 -0.05292,-0.0635 -0.243417,-0.0635 h -0.783167 q -0.963083,0 -0.963083,-0.94191 v -1.74625 q 0,-0.93134 0.98425,-0.93134 h 1.037167 q 0.98425,0 0.98425,0.93134 v 0.97366 h -0.963084 v -0.8255 q 0,-0.1905 -0.0635,-0.24341 -0.0635,-0.0635 -0.254,-0.0635 h -0.4445 q -0.1905,0 -0.254,0.0635 -0.0635,0.0529 -0.0635,0.24341 v 1.47109 q 0,0.1905 0.0635,0.254 0.0635,0.0529 0.254,0.0529 h 0.772584 q 0.973666,0 0.973666,0.93134 v 1.905 q 0,0.93133 -0.994833,0.93133 h -1.026583 q -0.98425,0 -0.98425,-0.93133 v -0.97367 h 0.963083 v 0.8255 q 0,0.1905 0.0635,0.254 0.0635,0.0529 0.254,0.0529 h 0.4445 q 0.1905,0 0.243417,-0.0529 0.0635,-0.0635 0.0635,-0.254 z"
         style="font-style:normal;font-variant:normal;font-weight:normal;font-stretch:normal;line-height:1;font-family:Teko;-inkscape-font-specification:Teko;fill:#ffffff;fill-opacity:1;stroke:#000000;stroke-width:0.26458332;stroke-opacity:1"
         id="path2627"
         inkscape:connector-curvature="0" />
      <path
         d="m 77.929567,145.78247 h 1.132416 q 0.98425,0 0.98425,0.94192 v 3.29142 q 0,0.93133 -0.98425,0.93133 h -1.132416 q -0.973667,0 -0.973667,-0.93133 v -3.29142 q 0,-0.94192 0.973667,-0.94192 z m 1.17475,4.09575 v -3.02683 q 0,-0.1905 -0.0635,-0.254 -0.0635,-0.0635 -0.254,-0.0635 h -0.582084 q -0.1905,0 -0.254,0.0635 -0.05292,0.0635 -0.05292,0.254 v 3.02683 q 0,0.1905 0.05292,0.254 0.0635,0.0635 0.254,0.0635 h 0.582084 q 0.1905,0 0.254,-0.0635 0.0635,-0.0635 0.0635,-0.254 z"
         style="font-style:normal;font-variant:normal;font-weight:normal;font-stretch:normal;line-height:1;font-family:Teko;-inkscape-font-specification:Teko;fill:#ffffff;fill-opacity:1;stroke:#000000;stroke-width:0.26458332;stroke-opacity:1"
         id="path2629"
         inkscape:connector-curvature="0" />
      <path
         d="m 82.894638,145.78247 h 0.9525 v 5.16467 h -0.9525 v -0.41275 q -0.137583,0.41275 -0.656166,0.41275 h -0.381 q -0.9525,0 -0.9525,-0.93133 v -4.23334 h 0.9525 v 4.08517 q 0,0.1905 0.0635,0.254 0.0635,0.0529 0.254,0.0529 h 0.370416 q 0.1905,0 0.264583,-0.0847 0.08467,-0.0847 0.08467,-0.28575 z"
         style="font-style:normal;font-variant:normal;font-weight:normal;font-stretch:normal;line-height:1;font-family:Teko;-inkscape-font-specification:Teko;fill:#ffffff;fill-opacity:1;stroke:#000000;stroke-width:0.26458332;stroke-opacity:1"
         id="path2631"
         inkscape:connector-curvature="0" />
      <path
         d="m 86.569535,145.77189 h 0.211666 v 0.8255 h -0.381 q -0.66675,0 -0.66675,0.78317 v 3.56658 h -0.9525 v -5.16467 h 0.9525 v 0.635 q 0.08467,-0.27516 0.296334,-0.45508 0.22225,-0.1905 0.53975,-0.1905 z"
         style="font-style:normal;font-variant:normal;font-weight:normal;font-stretch:normal;line-height:1;font-family:Teko;-inkscape-font-specification:Teko;fill:#ffffff;fill-opacity:1;stroke:#000000;stroke-width:0.26458332;stroke-opacity:1"
         id="path2633"
         inkscape:connector-curvature="0" />
      <path
         d="m 90.223762,147.41231 h -0.941917 v -0.55034 q 0,-0.1905 -0.0635,-0.24341 -0.0635,-0.0635 -0.254,-0.0635 h -0.455083 q -0.1905,0 -0.254,0.0635 -0.0635,0.0529 -0.0635,0.24341 v 3.00567 q 0,0.1905 0.0635,0.254 0.0635,0.0529 0.254,0.0529 h 0.455083 q 0.1905,0 0.254,-0.0529 0.0635,-0.0635 0.0635,-0.254 v -0.55033 h 0.941917 v 0.6985 q 0,0.93133 -0.994833,0.93133 h -1.005417 q -0.98425,0 -0.98425,-0.93133 v -3.29142 q 0,-0.94192 0.98425,-0.94192 h 1.005417 q 0.994833,0 0.994833,0.94192 z"
         style="font-style:normal;font-variant:normal;font-weight:normal;font-stretch:normal;line-height:1;font-family:Teko;-inkscape-font-specification:Teko;fill:#ffffff;fill-opacity:1;stroke:#000000;stroke-width:0.26458332;stroke-opacity:1"
         id="path2635"
         inkscape:connector-curvature="0" />
      <path
         d="m 91.986546,145.78247 h 1.037167 q 0.994833,0 0.994833,0.94192 v 1.93675 H 91.93363 v 1.22767 q 0,0.17991 0.0635,0.24341 0.0635,0.0635 0.254,0.0635 h 0.486833 q 0.1905,0 0.254,-0.0635 0.0635,-0.0635 0.0635,-0.254 v -0.42333 h 0.931333 v 0.56092 q 0,0.93133 -0.98425,0.93133 h -1.016 q -0.98425,0 -0.98425,-0.93133 v -3.29142 q 0,-0.94192 0.98425,-0.94192 z m -0.05292,2.18017 h 1.143 v -1.12183 q 0,-0.17992 -0.0635,-0.24342 -0.05292,-0.0635 -0.243417,-0.0635 H 92.25113 q -0.1905,0 -0.254,0.0635 -0.0635,0.0635 -0.0635,0.24342 z"
         style="font-style:normal;font-variant:normal;font-weight:normal;font-stretch:normal;line-height:1;font-family:Teko;-inkscape-font-specification:Teko;fill:#ffffff;fill-opacity:1;stroke:#000000;stroke-width:0.26458332;stroke-opacity:1"
         id="path2637"
         inkscape:connector-curvature="0" />
      <path
         d="m 58.377686,154.24385 h 0.98425 l -1.195917,6.62516 h -1.354667 l -1.195916,-6.62516 h 0.98425 l 0.878416,5.74675 z"
         style="font-style:normal;font-variant:normal;font-weight:normal;font-stretch:normal;line-height:1;font-family:Teko;-inkscape-font-specification:Teko;fill:#ffffff;fill-opacity:1;stroke:#000000;stroke-width:0.26458332;stroke-opacity:1"
         id="path2639"
         inkscape:connector-curvature="0" />
      <path
         d="m 60.835996,155.70435 h 1.037166 q 0.994834,0 0.994834,0.94191 v 1.93675 h -2.084917 v 1.22767 q 0,0.17992 0.0635,0.24342 0.0635,0.0635 0.254,0.0635 h 0.486833 q 0.1905,0 0.254,-0.0635 0.0635,-0.0635 0.0635,-0.254 v -0.42334 h 0.931334 v 0.56092 q 0,0.93133 -0.98425,0.93133 h -1.016 q -0.98425,0 -0.98425,-0.93133 v -3.29142 q 0,-0.94191 0.98425,-0.94191 z m -0.05292,2.18016 h 1.143 v -1.12183 q 0,-0.17992 -0.0635,-0.24342 -0.05292,-0.0635 -0.243417,-0.0635 h -0.518583 q -0.1905,0 -0.254,0.0635 -0.0635,0.0635 -0.0635,0.24342 z"
         style="font-style:normal;font-variant:normal;font-weight:normal;font-stretch:normal;line-height:1;font-family:Teko;-inkscape-font-specification:Teko;fill:#ffffff;fill-opacity:1;stroke:#000000;stroke-width:0.26458332;stroke-opacity:1"
         id="path2641"
         inkscape:connector-curvature="0" />
      <path
         d="m 65.464881,155.69376 h 0.211666 v 0.8255 h -0.381 q -0.666749,0 -0.666749,0.78317 v 3.56658 h -0.9525 v -5.16466 h 0.9525 v 0.635 q 0.08467,-0.27517 0.296333,-0.45509 0.22225,-0.1905 0.53975,-0.1905 z"
         style="font-style:normal;font-variant:normal;font-weight:normal;font-stretch:normal;line-height:1;font-family:Teko;-inkscape-font-specification:Teko;fill:#ffffff;fill-opacity:1;stroke:#000000;stroke-width:0.26458332;stroke-opacity:1"
         id="path2643"
         inkscape:connector-curvature="0" />
      <path
         d="m 66.176941,154.7201 v -0.94192 h 0.994833 v 0.94192 z m 0.973667,6.14891 h -0.9525 v -5.16466 h 0.9525 z"
         style="font-style:normal;font-variant:normal;font-weight:normal;font-stretch:normal;line-height:1;font-family:Teko;-inkscape-font-specification:Teko;fill:#ffffff;fill-opacity:1;stroke:#000000;stroke-width:0.26458332;stroke-opacity:1"
         id="path2645"
         inkscape:connector-curvature="0" />
      <path
         d="m 69.910046,154.5931 h -0.4445 q -0.1905,0 -0.254,0.0635 -0.0635,0.0529 -0.0635,0.24341 v 0.80434 h 0.762 v 0.77258 h -0.762 v 4.39208 h -0.9525 v -4.39208 h -0.518584 v -0.77258 h 0.518584 v -0.98425 q 0,-0.93134 0.98425,-0.93134 h 0.73025 z"
         style="font-style:normal;font-variant:normal;font-weight:normal;font-stretch:normal;line-height:1;font-family:Teko;-inkscape-font-specification:Teko;fill:#ffffff;fill-opacity:1;stroke:#000000;stroke-width:0.26458332;stroke-opacity:1"
         id="path2647"
         inkscape:connector-curvature="0" />
      <path
         d="m 70.414408,154.7201 v -0.94192 h 0.994833 v 0.94192 z m 0.973666,6.14891 h -0.9525 v -5.16466 h 0.9525 z"
         style="font-style:normal;font-variant:normal;font-weight:normal;font-stretch:normal;line-height:1;font-family:Teko;-inkscape-font-specification:Teko;fill:#ffffff;fill-opacity:1;stroke:#000000;stroke-width:0.26458332;stroke-opacity:1"
         id="path2649"
         inkscape:connector-curvature="0" />
      <path
         d="m 75.237596,157.33418 h -0.941917 v -0.55033 q 0,-0.1905 -0.0635,-0.24342 -0.0635,-0.0635 -0.254,-0.0635 h -0.455083 q -0.1905,0 -0.254,0.0635 -0.0635,0.0529 -0.0635,0.24342 v 3.00566 q 0,0.1905 0.0635,0.254 0.0635,0.0529 0.254,0.0529 h 0.455083 q 0.1905,0 0.254,-0.0529 0.0635,-0.0635 0.0635,-0.254 v -0.55033 h 0.941917 v 0.6985 q 0,0.93133 -0.994833,0.93133 h -1.005417 q -0.98425,0 -0.98425,-0.93133 v -3.29142 q 0,-0.94191 0.98425,-0.94191 h 1.005417 q 0.994833,0 0.994833,0.94191 z"
         style="font-style:normal;font-variant:normal;font-weight:normal;font-stretch:normal;line-height:1;font-family:Teko;-inkscape-font-specification:Teko;fill:#ffffff;fill-opacity:1;stroke:#000000;stroke-width:0.26458332;stroke-opacity:1"
         id="path2651"
         inkscape:connector-curvature="0" />
      <path
         d="m 77.963466,155.70435 h 0.9525 v 5.16466 h -0.9525 v -0.41275 q -0.137584,0.41275 -0.656167,0.41275 h -0.381 q -0.9525,0 -0.9525,-0.93133 v -3.29142 q 0,-0.94191 0.9525,-0.94191 h 0.381 q 0.518583,0 0.656167,0.41275 z m -0.719667,4.39208 h 0.370417 q 0.1905,0 0.264583,-0.0847 0.08467,-0.0847 0.08467,-0.28575 v -2.87866 q 0,-0.20109 -0.08467,-0.28575 -0.07408,-0.0847 -0.264583,-0.0847 h -0.370417 q -0.1905,0 -0.254,0.0635 -0.0635,0.0529 -0.0635,0.24342 v 3.00566 q 0,0.1905 0.0635,0.254 0.0635,0.0529 0.254,0.0529 z"
         style="font-style:normal;font-variant:normal;font-weight:normal;font-stretch:normal;line-height:1;font-family:Teko;-inkscape-font-specification:Teko;fill:#ffffff;fill-opacity:1;stroke:#000000;stroke-width:0.26458332;stroke-opacity:1"
         id="path2653"
         inkscape:connector-curvature="0" />
      <path
         d="m 81.586936,156.47693 h -0.709084 v 3.27025 q 0,0.1905 0.05292,0.254 0.0635,0.0529 0.254,0.0529 h 0.402167 v 0.81491 h -0.677334 q -0.994833,0 -0.994833,-0.93133 v -3.46075 h -0.486833 v -0.77258 h 0.486833 v -0.87842 h 0.963083 v 0.87842 h 0.709084 z"
         style="font-style:normal;font-variant:normal;font-weight:normal;font-stretch:normal;line-height:1;font-family:Teko;-inkscape-font-specification:Teko;fill:#ffffff;fill-opacity:1;stroke:#000000;stroke-width:0.26458332;stroke-opacity:1"
         id="path2655"
         inkscape:connector-curvature="0" />
      <path
         d="m 82.134623,154.7201 v -0.94192 h 0.994833 v 0.94192 z m 0.973666,6.14891 h -0.9525 v -5.16466 h 0.9525 z"
         style="font-style:normal;font-variant:normal;font-weight:normal;font-stretch:normal;line-height:1;font-family:Teko;-inkscape-font-specification:Teko;fill:#ffffff;fill-opacity:1;stroke:#000000;stroke-width:0.26458332;stroke-opacity:1"
         id="path2657"
         inkscape:connector-curvature="0" />
      <path
         d="m 84.957561,155.70435 h 1.132416 q 0.98425,0 0.98425,0.94191 v 3.29142 q 0,0.93133 -0.98425,0.93133 h -1.132416 q -0.973667,0 -0.973667,-0.93133 v -3.29142 q 0,-0.94191 0.973667,-0.94191 z m 1.17475,4.09575 v -3.02684 q 0,-0.1905 -0.0635,-0.254 -0.0635,-0.0635 -0.254,-0.0635 h -0.582084 q -0.1905,0 -0.254,0.0635 -0.05292,0.0635 -0.05292,0.254 v 3.02684 q 0,0.1905 0.05292,0.254 0.0635,0.0635 0.254,0.0635 h 0.582084 q 0.1905,0 0.254,-0.0635 0.0635,-0.0635 0.0635,-0.254 z"
         style="font-style:normal;font-variant:normal;font-weight:normal;font-stretch:normal;line-height:1;font-family:Teko;-inkscape-font-specification:Teko;fill:#ffffff;fill-opacity:1;stroke:#000000;stroke-width:0.26458332;stroke-opacity:1"
         id="path2659"
         inkscape:connector-curvature="0" />
      <path
         d="m 89.552216,155.70435 h 0.370416 q 0.963084,0 0.963084,0.94191 v 4.22275 h -0.9525 v -4.08516 q 0,-0.1905 -0.0635,-0.24342 -0.0635,-0.0635 -0.254,-0.0635 h -0.370417 q -0.1905,0 -0.275167,0.0847 -0.07408,0.0847 -0.07408,0.28575 v 4.02166 h -0.9525 v -5.16466 h 0.9525 v 0.41275 q 0.137583,-0.41275 0.656167,-0.41275 z"
         style="font-style:normal;font-variant:normal;font-weight:normal;font-stretch:normal;line-height:1;font-family:Teko;-inkscape-font-specification:Teko;fill:#ffffff;fill-opacity:1;stroke:#000000;stroke-width:0.26458332;stroke-opacity:1"
         id="path2661"
         inkscape:connector-curvature="0" />
      <path
         d="m 95.751568,156.8156 v -1.51342 q 0,-0.1905 -0.0635,-0.24342 -0.0635,-0.0635 -0.253999,-0.0635 h -1.058334 v 2.12725 h 1.058334 q 0.1905,0 0.253999,-0.0529 0.0635,-0.0635 0.0635,-0.254 z m 0,2.99508 v -1.62983 q 0,-0.1905 -0.0635,-0.24342 -0.0635,-0.0635 -0.253999,-0.0635 h -1.058334 v 2.24367 h 1.058334 q 0.1905,0 0.253999,-0.0529 0.0635,-0.0635 0.0635,-0.254 z m -2.328333,-5.56683 h 2.296583 q 0.994834,0 0.994834,0.93133 v 1.68275 q 0,0.56092 -0.423334,0.65617 0.423334,0.10583 0.423334,0.61383 v 1.80975 q 0,0.93133 -0.994834,0.93133 h -2.296583 z"
         style="font-style:normal;font-variant:normal;font-weight:normal;font-stretch:normal;line-height:1;font-family:Teko;-inkscape-font-specification:Teko;fill:#ffffff;fill-opacity:1;stroke:#000000;stroke-width:0.26458332;stroke-opacity:1"
         id="path2663"
         inkscape:connector-curvature="0" />
      <path
         d="m 99.6378,155.70435 h 0.9525 v 5.16466 h -0.9525 v -0.41275 q -0.137583,0.41275 -0.656166,0.41275 h -0.381 q -0.9525,0 -0.9525,-0.93133 v -4.23333 h 0.9525 v 4.08516 q 0,0.1905 0.0635,0.254 0.0635,0.0529 0.254,0.0529 h 0.370416 q 0.1905,0 0.264584,-0.0847 0.08467,-0.0847 0.08467,-0.28575 z"
         style="font-style:normal;font-variant:normal;font-weight:normal;font-stretch:normal;line-height:1;font-family:Teko;-inkscape-font-specification:Teko;fill:#ffffff;fill-opacity:1;stroke:#000000;stroke-width:0.26458332;stroke-opacity:1"
         id="path2665"
         inkscape:connector-curvature="0" />
      <path
         d="m 103.13278,155.70435 h 0.37042 q 0.96308,0 0.96308,0.94191 v 4.22275 h -0.9525 v -4.08516 q 0,-0.1905 -0.0635,-0.24342 -0.0635,-0.0635 -0.254,-0.0635 h -0.37041 q -0.1905,0 -0.27517,0.0847 -0.0741,0.0847 -0.0741,0.28575 v 4.02166 h -0.9525 v -5.16466 h 0.9525 v 0.41275 q 0.13758,-0.41275 0.65616,-0.41275 z"
         style="font-style:normal;font-variant:normal;font-weight:normal;font-stretch:normal;line-height:1;font-family:Teko;-inkscape-font-specification:Teko;fill:#ffffff;fill-opacity:1;stroke:#000000;stroke-width:0.26458332;stroke-opacity:1"
         id="path2667"
         inkscape:connector-curvature="0" />
      <path
         d="m 107.31568,153.78876 h 0.9525 v 7.08025 h -0.9525 v -0.41275 q -0.13758,0.41275 -0.65617,0.41275 h -0.381 q -0.9525,0 -0.9525,-0.93133 v -3.302 q 0,-0.94192 0.9525,-0.94192 h 0.381 q 0.51859,0 0.65617,0.41275 z m -0.71967,6.30767 h 0.37042 q 0.1905,0 0.26458,-0.0847 0.0847,-0.0847 0.0847,-0.28575 v -2.88925 q 0,-0.20108 -0.0847,-0.28575 -0.0741,-0.0847 -0.26458,-0.0847 h -0.37042 q -0.1905,0 -0.254,0.0635 -0.0635,0.0635 -0.0635,0.24341 v 3.01625 q 0,0.1905 0.0635,0.254 0.0635,0.0529 0.254,0.0529 z"
         style="font-style:normal;font-variant:normal;font-weight:normal;font-stretch:normal;line-height:1;font-family:Teko;-inkscape-font-specification:Teko;fill:#ffffff;fill-opacity:1;stroke:#000000;stroke-width:0.26458332;stroke-opacity:1"
         id="path2669"
         inkscape:connector-curvature="0" />
      <path
         d="m 110.1454,160.86901 h -0.9525 v -7.08025 h 0.9525 z"
         style="font-style:normal;font-variant:normal;font-weight:normal;font-stretch:normal;line-height:1;font-family:Teko;-inkscape-font-specification:Teko;fill:#ffffff;fill-opacity:1;stroke:#000000;stroke-width:0.26458332;stroke-opacity:1"
         id="path2671"
         inkscape:connector-curvature="0" />
      <path
         d="m 112.037,155.70435 h 1.03717 q 0.99483,0 0.99483,0.94191 v 1.93675 h -2.08491 v 1.22767 q 0,0.17992 0.0635,0.24342 0.0635,0.0635 0.254,0.0635 h 0.48683 q 0.1905,0 0.254,-0.0635 0.0635,-0.0635 0.0635,-0.254 v -0.42334 h 0.93133 v 0.56092 q 0,0.93133 -0.98425,0.93133 h -1.016 q -0.98425,0 -0.98425,-0.93133 v -3.29142 q 0,-0.94191 0.98425,-0.94191 z m -0.0529,2.18016 h 1.143 v -1.12183 q 0,-0.17992 -0.0635,-0.24342 -0.0529,-0.0635 -0.24342,-0.0635 h -0.51858 q -0.1905,0 -0.254,0.0635 -0.0635,0.0635 -0.0635,0.24342 z"
         style="font-style:normal;font-variant:normal;font-weight:normal;font-stretch:normal;line-height:1;font-family:Teko;-inkscape-font-specification:Teko;fill:#ffffff;fill-opacity:1;stroke:#000000;stroke-width:0.26458332;stroke-opacity:1"
         id="path2673"
         inkscape:connector-curvature="0" />
    </g>
  </g>
</svg>
